<svg version="1.1" id="Слой_1" xmlns="http://www.w3.org/2000/svg" xmlns:xlink="http://www.w3.org/1999/xlink" x="0px" y="0px"
	 viewBox="0 0 595.3 841.9" style="enable-background:new 0 0 595.3 841.9;" xml:space="preserve">
<style type="text/css">
	.st0{fill:#275EFE;}
	.st1{fill:#FFFFFF;stroke:#FFFFFF;stroke-width:3;stroke-miterlimit:10;}
	.st2{fill:#FFFFFF;}
	.st3{fill:none;stroke:#275EFE;stroke-width:4;stroke-miterlimit:10;}
</style>

<g id="Слой_3">
	<path class="st0" d="M427.6,548.6H194.4c-52.3,0-94.6-42.4-94.6-94.6V266c0-52.3,42.4-94.6,94.6-94.6h233.2
		c52.3,0,94.6,42.4,94.6,94.6v188C522.2,506.2,479.9,548.6,427.6,548.6z"/>
</g>
<g id="Слой_1_00000088092859726174970660000003334979028841499555_">
	<g>
		<path class="st1" d="M297,274.7l-55.5,107.6c-0.4,0.9-0.7,1.8-0.7,2.8v63.5c0,2.9-2.3,5.3-5.1,5.3h-27.4c-2.8,0-5.1-2.4-5.1-5.3
			v-63.5c0-1-0.2-2-0.7-2.8l-57.3-107.5c-1.9-3.5,0.6-7.9,4.5-7.9H182c2,0,3.8,1.2,4.6,3l30.7,67c2,4.5,8.4,4.4,10.3-0.1L257,270
			c0.8-1.9,2.6-3.1,4.6-3.1h30.8C296.3,266.9,298.8,271.1,297,274.7z"/>
	</g>
	<g>
		<path class="st1" d="M346,325v123.2c0,3.2-2.5,5.7-5.7,5.7h-23.7c-3.1,0-5.7-2.6-5.7-5.7V286.9 M422.1,383.8V272.6
			c0-3.2,2.5-5.8,5.7-5.8h23.7c3.1,0,5.7,2.6,5.7,5.8v151.6"/>
	</g>
</g>
<g>
	<g>
		<g id="XMLID_00000023279733170335867000000012367012202322180742_">
			<g>
				<path class="st2" d="M461,456.6c0,0.8-0.7,1.4-1.5,1.3l-32-7.6c-0.3-0.1-0.6-0.2-0.7-0.5L310.2,289.5
					c-3.8-5.3-1.1-10.5,4.1-14.4l14.4-10.8c5.2-3.9,12.5-2.8,16.4,2.5l115,158.1c0.1,0.1,0.1,0.2,0.2,0.3c0.1,0.1,0.1,0.3,0.1,0.4
					C460.6,435.9,460.8,446.3,461,456.6z"/>
			</g>
			<g>
				<path class="st3" d="M460.4,425.6c0-0.1-0.1-0.2-0.1-0.4c-0.1-0.1-0.1-0.2-0.2-0.3l-115-158.1c-3.8-5.3-11.2-6.4-16.4-2.5
					l-14.4,10.8c-5.2,3.9-7.9,9.1-4.1,14.4l116.5,160.2c0.2,0.2,0.4,0.4,0.7,0.5l32,7.6c0.8,0.2,1.6-0.4,1.5-1.3
					C460.8,446.3,460.6,435.9,460.4,425.6z"/>
			</g>
		</g>
	</g>
</g>
<g id="Слой_2_00000031198599302810242070000017421319194246266515_">
</g>
</svg>
