<?xml version="1.0" encoding="utf-8"?>
<!-- Generator: Adobe Illustrator 28.0.0, SVG Export Plug-In . SVG Version: 6.00 Build 0)  -->
<svg version="1.1" id="Слой_1" xmlns="http://www.w3.org/2000/svg" xmlns:xlink="http://www.w3.org/1999/xlink" x="0px" y="0px"
	 viewBox="0 0 422.5 377.2" style="enable-background:new 0 0 422.5 377.2;" xml:space="preserve">
<style type="text/css">
	.st0{fill:#FFFFFF;}
	.st1{fill:#343434;stroke:#FFFFFF;stroke-width:3;stroke-miterlimit:10;}
	.st2{fill:#343434;}
	.st3{fill:none;stroke:#FFFFFF;stroke-width:3;stroke-miterlimit:10;}
</style>
<g id="Слой_3">
	<path class="st0" d="M327.9,377.2H94.6C42.4,377.2,0,334.9,0,282.6v-188C0,42.4,42.4,0,94.6,0h233.2c52.3,0,94.6,42.4,94.6,94.6
		v188C422.5,334.9,380.1,377.2,327.9,377.2z"/>
</g>
<g id="Слой_1_00000083778516242638000010000015962095206914602654_">
	<g>
		<path class="st1" d="M197.2,102.9l-55.5,107.6c-0.4,0.9-0.7,1.8-0.7,2.8v63.5c0,2.9-2.3,5.3-5.1,5.3h-27.4c-2.8,0-5.1-2.4-5.1-5.3
			v-63.5c0-1-0.2-2-0.7-2.8L45.4,103c-1.9-3.5,0.6-7.9,4.5-7.9h32.4c2,0,3.8,1.2,4.6,3l30.7,67c2,4.5,8.4,4.4,10.3-0.1l29.3-66.8
			c0.8-1.9,2.6-3.1,4.6-3.1h30.8C196.6,95.1,199.1,99.4,197.2,102.9z"/>
	</g>
	<g>
		<path class="st1" d="M246.3,153.2v123.2c0,3.2-2.5,5.7-5.7,5.7h-23.7c-3.1,0-5.7-2.6-5.7-5.7V115.2 M322.3,212.1V100.9
			c0-3.2,2.5-5.8,5.7-5.8h23.7c3.1,0,5.7,2.6,5.7,5.8v151.6"/>
	</g>
</g>
<g id="Слой_4">
	<g>
		<g>
			<g>
				<g>
					<g>
						<path class="st2" d="M357.4,251.3c0-0.1-0.1-0.2-0.1-0.3s-0.1-0.2-0.2-0.3l-110.6-151c-3.7-5-10.8-6.1-15.8-2.4l-13.9,10.3
							c-5,3.7-7.6,8.7-3.9,13.8l112.1,153c0.2,0.2,0.4,0.4,0.7,0.5l30.8,7.3c0.8,0.2,1.5-0.4,1.5-1.2
							C357.8,271.1,357.6,261.2,357.4,251.3z"/>
					</g>
				</g>
			</g>
			<g>
				<g>
					<g>
						<path class="st3" d="M357.4,251.3c0-0.1-0.1-0.2-0.1-0.3s-0.1-0.2-0.2-0.3l-110.6-151c-3.7-5-10.8-6.1-15.8-2.4l-13.9,10.3
							c-5,3.7-7.6,8.7-3.9,13.8l112.1,153c0.2,0.2,0.4,0.4,0.7,0.5l30.8,7.3c0.8,0.2,1.5-0.4,1.5-1.2
							C357.8,271.1,357.6,261.2,357.4,251.3z"/>
					</g>
				</g>
			</g>
		</g>
	</g>
</g>
<g id="Слой_2_00000148636050810872932000000013926430011212606901_">
</g>
</svg>
