<?xml version="1.0" encoding="utf-8"?>
<!-- Generator: Adobe Illustrator 28.0.0, SVG Export Plug-In . SVG Version: 6.00 Build 0)  -->
<svg version="1.1" id="Слой_1" xmlns="http://www.w3.org/2000/svg" xmlns:xlink="http://www.w3.org/1999/xlink" x="0px" y="0px"
	 viewBox="0 0 422.5 377.2" style="enable-background:new 0 0 422.5 377.2;" xml:space="preserve">
<style type="text/css">
	.st0{fill:#275EFE;}
	.st1{fill:#FFFFFF;stroke:#FFFFFF;stroke-width:3;stroke-miterlimit:10;}
	.st2{fill:#FFFFFF;}
	.st3{fill:none;stroke:#275EFE;stroke-width:8;stroke-miterlimit:10;}
</style>
<g id="Слой_3">
	<path class="st0" d="M327.9,377.2H94.6C42.4,377.2,0,334.9,0,282.6v-188C0,42.4,42.4,0,94.6,0h233.2c52.3,0,94.6,42.4,94.6,94.6
		v188C422.5,334.9,380.1,377.2,327.9,377.2z"/>
</g>
<g id="Слой_1_00000088092859726174970660000003334979028841499555_">
	<g>
		<path class="st1" d="M197.2,103.4L141.8,211c-0.4,0.9-0.7,1.8-0.7,2.8v63.5c0,2.9-2.3,5.3-5.1,5.3h-27.4c-2.8,0-5.1-2.4-5.1-5.3
			v-63.5c0-1-0.2-2-0.7-2.8L45.4,103.4c-1.9-3.5,0.6-7.9,4.5-7.9h32.4c2,0,3.8,1.2,4.6,3l30.7,67c2,4.5,8.4,4.4,10.3-0.1l29.3-66.8
			c0.8-1.9,2.6-3.1,4.6-3.1h30.8C196.6,95.5,199.1,99.8,197.2,103.4z"/>
	</g>
	<g>
		<path class="st1" d="M246.3,153.7v123.2c0,3.2-2.5,5.7-5.7,5.7h-23.7c-3.1,0-5.7-2.6-5.7-5.7V115.6 M322.3,212.5V101.3
			c0-3.2,2.5-5.8,5.7-5.8h23.7c3.1,0,5.7,2.6,5.7,5.8v151.6"/>
	</g>
</g>
<g>
	<g>
		<g id="XMLID_00000023279733170335867000000012367012202322180742_">
			<g>
				<path class="st2" d="M363.4,287.5c0,0.8-0.8,1.5-1.6,1.3l-32.9-7.8c-0.3-0.1-0.6-0.2-0.7-0.5L208.4,115.9
					c-3.9-5.4-1.2-10.8,4.2-14.8L227.4,90c5.3-4,12.9-2.8,16.8,2.6l118.2,162.3c0.1,0.1,0.1,0.2,0.2,0.3c0.1,0.1,0.1,0.3,0.1,0.4
					C363,266.3,363.2,276.9,363.4,287.5z"/>
			</g>
			<g>
				<path class="st3" d="M362.7,255.7c0-0.1-0.1-0.2-0.1-0.4c-0.1-0.1-0.1-0.2-0.2-0.3L244.2,92.6c-3.9-5.4-11.5-6.6-16.8-2.6
					l-14.8,11.1c-5.4,4-8.1,9.4-4.2,14.8l119.8,164.5c0.2,0.2,0.4,0.4,0.7,0.5l32.9,7.8c0.8,0.2,1.6-0.4,1.6-1.3
					C363.2,276.9,363,266.3,362.7,255.7z"/>
			</g>
		</g>
	</g>
</g>
<g id="Слой_2_00000031198599302810242070000017421319194246266515_">
</g>
</svg>
