<?xml version="1.0" encoding="UTF-8" standalone="no"?>
<!-- Generator: Adobe Illustrator 28.0.0, SVG Export Plug-In . SVG Version: 6.00 Build 0)  -->

<svg
   version="1.1"
   x="0px"
   y="0px"
   viewBox="0 0 595.28 841.89"
   style="enable-background:new 0 0 595.28 841.89;"
   xml:space="preserve"
   id="svg11"
   sodipodi:docname="you note вторая версия.svg"
   inkscape:version="1.3.2 (091e20e, 2023-11-25)"
   xmlns:inkscape="http://www.inkscape.org/namespaces/inkscape"
   xmlns:sodipodi="http://sodipodi.sourceforge.net/DTD/sodipodi-0.dtd"
   xmlns="http://www.w3.org/2000/svg"
   xmlns:svg="http://www.w3.org/2000/svg"><defs
   id="defs11" /><sodipodi:namedview
   id="namedview11"
   pagecolor="#ffffff"
   bordercolor="#000000"
   borderopacity="0.25"
   inkscape:showpageshadow="2"
   inkscape:pageopacity="0.0"
   inkscape:pagecheckerboard="0"
   inkscape:deskcolor="#d1d1d1"
   inkscape:zoom="0.42921242"
   inkscape:cx="124.64691"
   inkscape:cy="384.42503"
   inkscape:window-width="1472"
   inkscape:window-height="773"
   inkscape:window-x="0"
   inkscape:window-y="37"
   inkscape:window-maximized="0"
   inkscape:current-layer="svg11" />
<style
   type="text/css"
   id="style1">
	.st0{fill:#3B5DA8;}
	.st1{fill:#343434;stroke:#FFFFFF;stroke-width:3;stroke-miterlimit:10;}
	.st2{fill:#343434;}
	.st3{fill:none;stroke:#FFFFFF;stroke-width:3;stroke-miterlimit:10;}
</style>
<g
   id="Слой_3"
   style="fill:#275efe;fill-opacity:1">
	<path
   class="st0"
   d="M427.61,549H194.37c-52.26,0-94.63-42.37-94.63-94.63V266.4c0-52.26,42.37-94.63,94.63-94.63h233.24   c52.26,0,94.63,42.37,94.63,94.63v187.97C522.24,506.64,479.87,549,427.61,549z"
   id="path1"
   style="fill:#275efe;fill-opacity:1" />
</g>
<g
   id="Слой_1">
	<g
   id="g2">
		<path
   class="st1"
   d="M296.96,274.68L241.5,382.3c-0.44,0.86-0.68,1.82-0.68,2.79v63.52c0,2.94-2.29,5.32-5.12,5.32h-27.37    c-2.83,0-5.12-2.38-5.12-5.32v-63.48c0-0.99-0.24-1.97-0.71-2.84l-57.33-107.54c-1.89-3.55,0.58-7.9,4.47-7.9h32.4    c1.97,0,3.77,1.18,4.62,3.03l30.7,66.97c2.04,4.45,8.38,4.4,10.34-0.08l29.32-66.81c0.83-1.89,2.65-3.11,4.65-3.11h30.77    C296.32,266.85,298.79,271.13,296.96,274.68z"
   id="path2" />
	</g>
	<g
   id="g3">
		<path
   class="st1"
   d="M346.02,324.98v123.21c0,3.17-2.54,5.73-5.68,5.73h-23.67c-3.14,0-5.68-2.57-5.68-5.73V286.92 M422.07,383.82    V272.62c0-3.19,2.54-5.78,5.68-5.78h23.67c3.14,0,5.68,2.59,5.68,5.78v151.64"
   id="path3" />
	</g>
</g>
<g
   id="Слой_4">
	<g
   id="g11">
		<g
   id="g10">
			<g
   id="g6">
				<g
   id="g5">
					<g
   id="g4">
						<path
   class="st2"
   d="M457.11,423.09c-0.03-0.1-0.07-0.22-0.12-0.34c-0.05-0.12-0.11-0.23-0.17-0.32L346.26,271.45        c-3.69-5.04-10.75-6.11-15.75-2.39l-13.87,10.29c-5.01,3.72-7.6,8.72-3.91,13.76l112.05,153.02c0.17,0.23,0.42,0.4,0.7,0.46        l30.77,7.3c0.77,0.18,1.51-0.41,1.49-1.2C457.53,442.83,457.32,432.96,457.11,423.09z"
   id="path4" />
					</g>
				</g>
			</g>
			<g
   id="g9">
				<g
   id="g8">
					<g
   id="g7">
						<path
   class="st3"
   d="M457.11,423.09c-0.03-0.1-0.07-0.22-0.12-0.34c-0.05-0.12-0.11-0.23-0.17-0.32L346.26,271.45        c-3.69-5.04-10.75-6.11-15.75-2.39l-13.87,10.29c-5.01,3.72-7.6,8.72-3.91,13.76l112.05,153.02c0.17,0.23,0.42,0.4,0.7,0.46        l30.77,7.3c0.77,0.18,1.51-0.41,1.49-1.2C457.53,442.83,457.32,432.96,457.11,423.09z"
   id="path6" />
					</g>
				</g>
			</g>
		</g>
	</g>
</g>
<g
   id="Слой_2">
</g>
</svg>
